<?xml version="1.0" standalone="no"?>
<!DOCTYPE svg PUBLIC "-//W3C//DTD SVG 20010904//EN"
 "http://www.w3.org/TR/2001/REC-SVG-20010904/DTD/svg10.dtd">
<svg version="1.0" xmlns="http://www.w3.org/2000/svg"
 width="500.000000pt" height="500.000000pt" viewBox="0 0 500.000000 500.000000"
 preserveAspectRatio="xMidYMid meet">

<g transform="translate(0.000000,500.000000) scale(0.100000,-0.100000)"
fill="#000000" stroke="none">
<path d="M2925 4013 c-85 -11 -278 -56 -340 -78 -38 -14 -100 -43 -136 -65
-65 -39 -161 -132 -182 -177 -5 -12 -14 -23 -19 -23 -4 0 -8 -5 -8 -10 0 -6
-11 -33 -25 -61 -90 -187 -36 -415 116 -488 79 -39 142 -19 104 33 -56 75 -66
93 -76 128 -18 67 8 139 69 196 83 77 257 146 406 161 136 14 415 -4 451 -28
6 -4 36 -15 68 -26 31 -10 62 -24 68 -32 6 -7 17 -13 24 -13 7 0 41 -28 77
-62 62 -61 101 -125 127 -209 14 -44 14 -172 2 -217 -9 -29 -8 -33 7 -30 22 4
30 38 31 133 2 165 -60 289 -194 392 -59 45 -152 90 -215 103 -30 6 -77 16
-105 21 -66 13 -328 14 -385 1 -216 -50 -298 -87 -384 -175 -42 -42 -66 -76
-74 -105 -21 -68 -2 -155 47 -215 20 -24 2 -41 -30 -28 -23 8 -66 46 -98 86
-26 32 -51 115 -51 168 0 91 50 236 105 307 31 39 128 130 139 130 5 0 17 6
25 14 25 21 167 72 282 100 236 58 479 55 699 -11 151 -45 261 -114 355 -224
57 -67 84 -122 98 -203 l11 -63 70 -6 c138 -10 256 -88 297 -195 25 -68 27
-148 5 -250 -15 -70 -67 -202 -88 -226 -5 -6 -19 -29 -32 -51 -25 -46 -52 -55
-82 -27 -29 27 -61 43 -119 58 -66 18 -105 18 -105 0 0 -16 21 -26 58 -26 38
0 131 -46 170 -83 53 -51 84 -121 90 -202 4 -64 1 -75 -29 -134 -30 -56 -41
-68 -92 -94 -47 -25 -73 -31 -141 -35 -62 -3 -83 -8 -83 -18 0 -11 19 -14 84
-14 69 0 94 5 137 25 133 63 192 236 129 380 -14 33 -26 69 -25 80 0 12 19 52
42 90 108 177 148 318 130 462 -10 75 -48 158 -89 191 -78 62 -168 100 -248
104 -56 3 -58 4 -61 33 -5 63 -23 116 -52 157 -17 24 -38 53 -46 65 -21 30
-81 93 -89 93 -3 0 -16 9 -28 21 -12 11 -35 28 -52 36 -16 9 -32 19 -35 24
-17 26 -228 90 -355 109 -67 9 -287 11 -350 3z"/>
<path d="M2253 3092 c-15 -10 -31 -171 -38 -402 -3 -102 -10 -225 -15 -275
-16 -143 -22 -463 -12 -550 22 -180 101 -415 179 -535 13 -19 29 -44 36 -54
55 -86 174 -195 265 -244 143 -76 360 -102 517 -62 70 18 281 110 295 128 3 4
23 19 45 34 70 46 143 124 214 228 60 88 115 251 126 370 12 136 14 250 4 256
-6 3 -13 4 -15 1 -3 -3 -9 -70 -14 -148 -13 -228 -43 -325 -147 -486 -31 -49
-159 -183 -173 -183 -4 0 -20 -11 -36 -25 -39 -34 -170 -96 -274 -131 -151
-51 -324 -37 -502 42 -205 91 -373 322 -449 619 -26 99 -38 236 -28 310 6 49
53 180 69 195 3 3 14 23 25 44 29 58 161 186 226 220 80 41 89 37 122 -66 18
-57 33 -88 43 -88 17 0 17 4 -1 60 -48 150 -51 155 -79 158 -39 5 -110 -31
-184 -95 -86 -73 -134 -131 -183 -225 -67 -131 -67 -131 -39 257 11 149 20
324 20 391 0 66 5 146 11 178 12 65 9 89 -8 78z"/>
<path d="M1060 3051 c-8 -5 -42 -14 -74 -20 -180 -33 -354 -202 -422 -410 -31
-93 -35 -240 -10 -315 9 -26 16 -53 16 -60 0 -15 64 -138 88 -169 37 -48 134
-135 169 -153 21 -10 40 -22 43 -26 3 -4 42 -20 85 -35 68 -23 97 -27 191 -28
66 0 121 5 135 12 13 6 50 19 82 28 31 8 57 20 57 25 0 19 65 30 119 20 30 -5
79 -10 110 -10 57 0 171 24 181 39 3 4 19 13 37 20 37 15 93 63 93 79 0 8 -29
12 -92 12 -68 0 -104 5 -133 19 -66 30 -70 41 -41 103 68 146 76 324 22 477
-65 181 -253 346 -437 383 -73 14 -201 20 -219 9z m270 -64 c36 -13 92 -41
125 -62 62 -39 175 -150 175 -171 0 -7 6 -19 14 -26 7 -8 26 -48 41 -89 54
-147 44 -310 -27 -453 -27 -55 -28 -60 -13 -82 25 -39 88 -74 143 -81 54 -6
75 -27 39 -37 -149 -43 -230 -56 -242 -37 -3 6 -13 10 -23 9 -9 0 -33 3 -52 7
-28 5 -47 1 -94 -24 -32 -17 -64 -31 -71 -31 -7 0 -15 -4 -17 -9 -4 -12 -183
-33 -228 -27 -19 3 -56 8 -82 11 -27 3 -48 10 -48 14 0 5 -15 12 -34 15 -42 8
-137 69 -196 127 -264 258 -210 699 109 893 60 37 145 68 155 58 4 -3 6 0 6 6
0 31 228 23 320 -11z"/>
<path d="M2480 2851 c-11 -21 -13 -103 -4 -138 8 -28 39 -30 53 -5 10 19 7
135 -4 152 -10 16 -34 11 -45 -9z"/>
<path d="M3224 2833 c-12 -27 -14 -48 -7 -78 7 -34 12 -40 33 -40 20 0 26 7
33 36 11 46 -7 119 -29 119 -8 0 -22 -17 -30 -37z"/>
<path d="M3636 2570 c-14 -72 -30 -139 -35 -148 -5 -9 -17 -37 -29 -62 -21
-48 -68 -110 -83 -110 -4 0 -20 25 -35 55 -38 77 -155 196 -230 234 -75 39
-216 65 -293 56 -79 -10 -149 -33 -160 -53 -10 -19 16 -150 36 -187 22 -39 25
10 5 88 l-20 76 32 11 c17 6 40 16 50 22 24 13 206 13 215 1 3 -6 29 -15 56
-22 111 -27 251 -158 295 -275 13 -36 28 -66 33 -66 17 0 86 84 117 141 63
118 117 355 84 366 -6 2 -21 -49 -38 -127z"/>
<path d="M2948 2336 c-20 -7 -61 -29 -90 -48 -92 -61 -181 -113 -249 -146 -54
-27 -69 -39 -86 -74 -40 -81 -39 -110 0 -198 22 -49 68 -97 114 -120 40 -20
55 -22 122 -16 82 6 186 40 251 81 22 14 42 25 45 25 3 0 29 24 59 53 127 124
157 286 71 389 -51 60 -154 84 -237 54z m161 -32 c12 -11 -19 -40 -51 -48 -25
-6 -43 -5 -64 5 -37 18 -43 46 -12 52 25 6 120 -1 127 -9z m-196 -74 c-2 -38
-40 -80 -73 -80 -22 0 -70 20 -70 29 0 4 10 13 21 21 12 8 38 27 58 42 48 36
66 32 64 -12z m272 -2 c24 -49 26 -121 5 -163 -13 -26 -21 -30 -58 -31 -62 -1
-88 -19 -103 -70 l-13 -44 -62 6 c-71 8 -96 -2 -114 -46 -10 -25 -17 -30 -34
-25 -81 23 -124 12 -148 -41 -14 -31 -23 -30 -58 4 -45 43 -70 100 -70 158 0
67 18 85 56 55 53 -42 114 -21 147 50 l22 48 56 -6 c70 -7 91 4 119 62 24 50
21 49 73 34 45 -12 95 1 122 31 26 29 38 25 60 -22z m-469 -114 c-8 -32 -43
-63 -71 -63 -11 -1 -31 8 -45 19 l-25 19 55 25 c75 34 94 34 86 0z m431 -122
c8 -5 -3 -23 -33 -55 -25 -26 -49 -47 -55 -47 -5 0 -9 15 -9 33 0 43 22 64 80
76 3 0 10 -3 17 -7z m-177 -106 c25 -7 44 -16 43 -20 -2 -3 -3 -10 -3 -16 0
-5 -5 -10 -11 -10 -6 0 -38 -12 -71 -27 -47 -21 -61 -24 -68 -13 -11 17 6 72
27 88 21 15 27 15 83 -2z m-174 -83 l29 -28 -65 -6 c-74 -6 -80 -5 -80 21 0
45 73 53 116 13z"/>
</g>
</svg>
